<svg width="261" height="270" viewBox="0 0 261 270" fill="none" xmlns="http://www.w3.org/2000/svg">
<path d="M260.309 161.634C258.741 156.87 254.631 153.551 249.317 152.755C246.811 152.38 243.941 152.54 240.545 153.242C234.626 154.467 230.234 154.933 227.03 155.023C239.127 134.542 248.963 111.187 254.626 89.2017C263.783 53.6522 258.89 37.4572 253.172 30.1319C238.039 10.7426 215.961 0.326431 189.327 0.00771648C175.118 -0.166501 162.645 2.64659 156.138 4.66956C150.08 3.59761 143.565 2.99913 136.73 2.88845C123.918 2.68349 112.597 5.48428 102.924 11.2406C97.5692 9.42466 88.9743 6.8647 79.0489 5.23115C55.7048 1.38813 36.8902 4.38262 23.1282 14.1316C6.46377 25.9353 -1.26138 46.4437 0.167348 75.0871C0.621107 84.1812 5.69422 111.851 13.682 138.092C18.2727 153.175 23.168 165.7 28.2319 175.323C35.4134 188.969 43.0977 197.004 51.7242 199.89C56.5592 201.505 65.3441 202.637 74.5838 194.92C75.755 196.342 77.3176 197.755 79.3912 199.068C82.0249 200.733 85.2451 202.094 88.4613 202.901C100.052 205.806 110.908 205.08 120.17 201.007C120.228 202.659 120.271 204.237 120.308 205.6C120.37 207.811 120.431 209.978 120.512 212.005C121.06 225.711 121.99 236.368 124.746 243.825C124.897 244.234 125.1 244.86 125.315 245.523C126.689 249.743 128.988 256.808 134.836 262.341C140.891 268.072 148.215 269.83 154.924 269.83C158.288 269.83 161.498 269.387 164.314 268.783C174.35 266.625 185.748 263.34 193.993 251.567C201.789 240.438 205.578 223.675 206.264 197.262C206.353 196.515 206.435 195.802 206.513 195.123L206.677 193.727L208.513 193.889L208.986 193.921C219.208 194.388 231.707 192.214 239.383 188.639C245.449 185.816 264.886 175.526 260.309 161.634" fill="#1E2235"/>
<path d="M242.832 164.336C212.438 170.623 210.348 160.304 210.348 160.304C242.438 112.555 255.854 51.945 244.278 37.1109C212.695 -3.35361 158.024 15.7836 157.111 16.2797L156.818 16.3329C150.813 15.0827 144.093 14.3387 136.54 14.2147C122.788 13.9892 112.355 17.8302 104.439 23.8499C104.439 23.8499 6.91145 -16.4394 11.448 74.5205C12.4128 93.8709 39.1069 220.938 70.9457 182.558C82.583 168.523 93.8279 156.657 93.8279 156.657C99.412 160.377 106.098 162.275 113.107 161.593L113.651 161.13C113.482 162.872 113.559 164.576 113.869 166.594C105.667 175.784 108.077 177.397 91.6807 180.782C75.0888 184.211 84.8355 190.315 91.1993 191.911C98.9143 193.845 116.762 196.585 128.822 179.657L128.341 181.588C131.554 184.17 133.811 198.378 133.433 211.259C133.055 224.138 132.802 232.981 135.334 239.889C137.867 246.796 140.39 262.337 161.946 257.706C179.956 253.835 189.29 243.805 190.589 227.074C191.51 215.18 193.596 216.939 193.727 206.305L195.4 201.271C197.328 185.147 195.706 179.946 206.802 182.365L209.5 182.603C217.665 182.975 228.355 181.285 234.629 178.361C248.138 172.075 256.15 161.578 242.83 164.336H242.832" fill="#0E7490"/>
<path d="M110.148 83.1738C107.409 82.7915 104.929 83.1451 103.674 84.0981C102.969 84.6341 102.75 85.2551 102.691 85.6825C102.533 86.8149 103.324 88.0672 103.811 88.7128C105.186 90.5411 107.196 91.7975 109.184 92.0742C109.472 92.1151 109.76 92.1336 110.045 92.1336C113.361 92.1336 116.377 89.5439 116.643 87.6327C116.975 85.2387 113.509 83.6431 110.148 83.1748V83.1738ZM200.884 83.2496C200.622 81.3732 197.292 80.8383 194.132 81.2789C190.977 81.7196 187.917 83.1481 188.172 85.0287C188.377 86.491 191.01 88.9875 194.127 88.9875C194.391 88.9875 194.657 88.97 194.924 88.9321C197.005 88.6431 198.532 87.3181 199.258 86.5546C200.361 85.3904 201.001 84.093 200.884 83.2496" fill="#1E2235"/>
<path d="M252.945 163.622C251.786 160.108 248.056 158.977 241.859 160.26C223.458 164.069 216.868 161.431 214.705 159.833C229.008 137.984 240.774 111.573 247.121 86.9312C250.128 75.2587 251.789 64.4182 251.924 55.5823C252.075 45.8846 250.427 38.758 247.03 34.4047C233.334 16.8548 213.231 7.44091 188.898 7.18266C172.169 6.99409 158.035 11.287 155.295 12.4942C149.525 11.0554 143.235 10.172 136.386 10.0593C123.828 9.85536 112.973 12.8703 103.985 19.0161C100.081 17.5588 89.9924 14.0858 77.654 12.0925C56.3232 8.64916 39.3726 11.2583 27.2764 19.8513C12.8429 30.1056 6.1796 48.4353 7.47037 74.3302C7.90471 83.0421 12.8552 109.843 20.6672 135.509C30.9504 169.291 42.1289 188.415 53.8898 192.349C55.2664 192.809 56.8536 193.131 58.6042 193.131C62.8945 193.131 68.1547 191.192 73.6274 184.594C80.3025 176.565 87.2075 168.73 94.3338 161.1C98.9572 163.588 104.036 164.978 109.231 165.117C109.241 165.253 109.255 165.39 109.267 165.525C108.373 166.594 107.497 167.679 106.64 168.779C103.041 173.361 102.292 174.315 90.7057 176.707C87.4098 177.389 78.6565 179.198 78.5278 185.351C78.3888 192.074 88.8753 194.897 90.07 195.196C94.2336 196.241 98.2449 196.757 102.07 196.757C111.373 196.757 119.56 193.691 126.103 187.758C125.902 211.724 126.898 235.34 129.768 242.535C132.118 248.426 137.86 262.821 155.996 262.82C158.657 262.82 161.586 262.51 164.809 261.817C183.737 257.748 191.957 249.359 195.136 230.865C196.838 220.98 199.757 197.378 201.131 184.717C204.029 185.624 207.76 186.039 211.794 186.038C220.207 186.038 229.915 184.246 236.003 181.412C242.842 178.227 255.184 170.412 252.945 163.622V163.622ZM207.87 78.0707C207.808 81.8082 207.294 85.2013 206.751 88.7431C206.165 92.5523 205.56 96.4906 205.408 101.271C205.258 105.924 205.837 110.761 206.397 115.439C207.53 124.888 208.692 134.616 204.194 144.214C203.447 142.886 202.781 141.514 202.201 140.105C201.642 138.747 200.428 136.564 198.747 133.543C192.207 121.782 176.893 94.2412 184.732 83.0031C187.067 79.6582 192.994 76.2189 207.87 78.0707V78.0707ZM189.838 14.7509C211.641 15.2336 228.888 23.4126 241.099 39.0593C250.464 51.0609 240.151 105.67 210.296 152.781C209.996 152.399 209.694 152.017 209.391 151.637L209.012 151.163C216.727 138.387 215.219 125.746 213.876 114.539C213.324 109.939 212.803 105.595 212.936 101.514C213.073 97.1896 213.643 93.4798 214.195 89.8929C214.872 85.4729 215.562 80.8992 215.372 75.5077C215.514 74.942 215.572 74.2738 215.497 73.4806C215.011 68.3105 209.125 52.8369 197.127 38.8318C190.564 31.1714 180.993 22.5989 167.925 16.8169C173.546 15.6486 181.232 14.5592 189.838 14.7509V14.7509ZM67.8358 179.766C61.8061 187.036 57.6425 185.642 56.2731 185.185C47.3512 182.201 36.9985 163.291 27.8712 133.305C19.9733 107.359 15.358 81.2681 14.9922 73.952C13.8394 50.8139 19.4327 34.6885 31.6178 26.0227C51.4483 11.9214 84.0516 20.3617 97.1524 24.6423C96.9643 24.8288 96.7681 25.0031 96.5821 25.1926C75.0837 46.9637 75.5937 84.1601 75.6468 86.4342C75.6448 87.3114 75.7183 88.5535 75.8185 90.2619C76.1885 96.5183 76.8773 108.162 75.0377 121.348C73.329 133.602 77.096 145.595 85.371 154.254C86.2202 155.141 87.1128 155.985 88.0455 156.783C84.3623 160.739 76.3571 169.487 67.8358 179.766V179.766ZM90.8089 149.028C84.1395 142.05 81.1103 132.343 82.4972 122.394C84.4389 108.465 83.7225 96.3328 83.3372 89.815C83.2831 88.903 83.235 88.1036 83.2074 87.4733C86.348 84.6807 100.902 76.8615 111.281 79.2462C116.017 80.3335 118.903 83.5678 120.103 89.1305C126.313 117.931 120.925 129.934 116.596 139.581C115.703 141.568 114.86 143.446 114.141 145.389L113.583 146.892C112.17 150.69 110.856 154.221 110.042 157.574C102.951 157.554 96.0537 154.516 90.8089 149.027V149.028ZM91.8973 187.869C89.8268 187.35 87.9648 186.449 86.8723 185.702C87.7849 185.272 89.4088 184.686 92.2254 184.104C105.856 181.29 107.961 179.304 112.558 173.452C113.611 172.109 114.806 170.588 116.461 168.736L116.463 168.734C118.927 165.967 120.054 166.436 122.098 167.286C123.755 167.973 125.368 170.056 126.022 172.347C126.332 173.429 126.679 175.483 125.542 177.082C115.939 190.564 101.947 190.391 91.8973 187.869V187.869ZM163.231 254.432C146.556 258.015 140.652 249.483 136.761 239.73C134.25 233.434 133.016 205.04 133.892 173.684C133.903 173.267 133.844 172.865 133.729 172.485C133.627 171.737 133.471 170.996 133.263 170.27C131.961 165.707 128.788 161.891 124.981 160.309C123.468 159.68 120.693 158.527 117.357 159.383C118.068 156.444 119.302 153.125 120.64 149.531L121.201 148.019C121.832 146.315 122.625 144.549 123.463 142.68C127.994 132.587 134.198 118.764 127.464 87.5348C124.942 75.8377 116.519 70.1254 103.75 71.4525C96.0957 72.2467 89.092 75.3437 85.5989 77.1197C84.8477 77.5009 84.1609 77.8699 83.5191 78.2285C84.4941 66.4432 88.1773 44.4181 101.956 30.4827C110.631 21.7103 122.185 17.3775 136.262 17.6111C163.998 18.0661 181.785 32.3397 191.823 44.2346C200.473 54.4837 205.156 64.8087 207.026 70.3775C192.968 68.9438 183.408 71.7261 178.561 78.6743C168.018 93.7882 184.33 123.122 192.169 137.221C193.607 139.804 194.848 142.037 195.238 142.986C197.791 149.19 201.096 153.333 203.509 156.356C204.249 157.282 204.966 158.181 205.512 158.966C201.255 160.197 193.607 163.041 194.304 177.256C193.742 184.388 189.745 217.783 187.714 229.582C185.034 245.169 179.314 250.974 163.231 254.433V254.432ZM232.832 174.563C228.478 176.589 221.192 178.108 214.272 178.435C206.627 178.794 202.735 177.577 201.82 176.827C201.39 167.969 204.678 167.044 208.158 166.064C208.705 165.91 209.238 165.76 209.753 165.579C210.073 165.84 210.424 166.1 210.808 166.354C216.952 170.42 227.911 170.859 243.383 167.656L243.552 167.623C241.465 169.579 237.895 172.205 232.832 174.563Z" fill="#1E2235"/>
</svg>
